<?xml version="1.0" encoding="utf-8"?>
<!-- Generator: Adobe Illustrator 26.3.1, SVG Export Plug-In . SVG Version: 6.00 Build 0)  -->
<svg version="1.1" id="Layer_1" xmlns="http://www.w3.org/2000/svg" xmlns:xlink="http://www.w3.org/1999/xlink" x="0px" y="0px"
	 viewBox="0 0 126 127.6" style="enable-background:new 0 0 126 127.6;" xml:space="preserve">
<style type="text/css">
	.st0{fill:#724F36;}
	.st1{fill:#373434;}
	.st2{fill:#BC8543;}
	.st3{opacity:0.15;fill:#12100B;enable-background:new    ;}
	.st4{fill:#956149;}
	.st5{fill:#705040;}
	.st6{fill:#815B49;}
</style>
<path class="st0" d="M111.8,110c7-8.9,7.1-20.6,0.1-26c-6.9-5.4-18.2-2.6-25.2,6.3c-7,8.9-7.1,20.6-0.1,26
	C93.5,121.8,104.8,119,111.8,110z"/>
<path class="st1" d="M94.9,122c-3.9,0-7.3-1.1-10.1-3.3c-8.1-6.4-8.3-19.9-0.3-30c5-6.4,12.2-10.2,19.2-10.2c3.9,0,7.3,1.1,10.1,3.3
	c8.1,6.4,8.3,19.9,0.3,30C109.1,118.1,101.9,122,94.9,122z M103.6,84c-5.1,0-10.7,3-14.6,8c-6,7.7-6.4,17.5-0.6,22
	c1.8,1.5,4.1,2.2,6.6,2.2c5.1,0,10.7-3,14.6-8c6-7.7,6.4-17.5,0.6-22C108.4,84.8,106.1,84,103.6,84z"/>
<path class="st2" d="M113.8,85.7c0,0-14.5,4.7-14.5,14.5c0,7.9-14.2,13.9-14.2,13.9"/>
<path class="st1" d="M85.1,116.9c-1.1,0-2.2-0.6-2.6-1.8c-0.6-1.5,0.1-3.1,1.6-3.8c3.2-1.4,12.4-6.4,12.5-11.3
	c0-11.7,15.7-17,16.5-17.2c1.5-0.5,3.1,0.3,3.7,1.9c0.5,1.5-0.3,3.1-1.9,3.6c-3.4,1.1-12.5,5.5-12.5,11.8c0,9.5-14.4,15.7-16,16.5
	C85.8,116.8,85.4,116.9,85.1,116.9z"/>
<path class="st3" d="M112,84c-1-0.8-2.3-1.5-3.5-1.9c2.3,5.9,0.8,13.9-4.3,20.3c-5.9,7.5-14.9,10.7-21.7,8.2
	c0.8,2.2,2.2,4.2,4.1,5.7c6.9,5.4,18.3,2.6,25.2-6.4C118.9,101,118.9,89.4,112,84z"/>
<path class="st4" d="M37.5,115c8.7-1.9,14.6-8.9,13.2-15.6c-1.5-6.8-9.7-10.7-18.4-8.8S17.6,99.4,19,106.2
	C20.5,112.9,28.7,116.9,37.5,115z"/>
<path class="st1" d="M33.1,118.3c-8.6,0-15.4-4.8-16.9-11.6c-0.9-4.2,0.3-8.4,3.3-12.1c2.9-3.4,7.2-5.9,12-7
	c1.7-0.3,3.3-0.5,4.9-0.5c8.4,0,15.4,4.8,16.9,11.6c1.8,8.3-5.1,16.9-15.4,19.1C36.4,118.1,34.7,118.3,33.1,118.3z M36.5,92.9
	c-1.3,0-2.5,0.1-3.8,0.4c-3.7,0.7-6.8,2.6-8.9,5c-1.9,2.3-2.7,4.8-2.2,7.2c0.9,4.2,5.5,7.1,11.4,7.1c1.3,0,2.5-0.1,3.8-0.4
	c7.2-1.6,12.1-7.1,11.1-12.3C46.9,95.8,42.3,92.9,36.5,92.9z"/>
<path class="st2" d="M50.9,101.2c0,0-11.2-4.4-16.1,1.5c-4,4.8-15.5,1.3-15.5,1.3"/>
<path class="st1" d="M27.4,108.1c-4.3,0-8.3-1.1-9.1-1.4c-1.5-0.4-2.4-2.1-1.9-3.5c0.4-1.5,2.1-2.4,3.5-1.9c4,1.1,10.6,1.9,12.5-0.3
	c6.2-7.4,18.8-2.5,19.3-2.3c1.5,0.6,2.2,2.2,1.6,3.8c-0.6,1.5-2.2,2.2-3.8,1.6c-0.1,0-9.4-3.5-12.8,0.6
	C34.7,107.3,31,108.1,27.4,108.1z"/>
<path class="st3" d="M50.7,99.3c-0.8-3.9-3.8-6.8-7.8-8.2c0.1,0.2,0.1,0.4,0.2,0.6c1.5,6.8-4.5,13.8-13.2,15.6
	c-3.9,0.8-7.6,0.5-10.6-0.6c1.8,6.4,9.8,10.1,18.4,8.2C46.2,113.1,52.1,106.1,50.7,99.3z"/>
<path class="st4" d="M67.9,88.1c9.1-0.7,15.7-10.7,14.8-22.4c-0.9-11.7-9-20.5-18.1-19.8c-9.1,0.7-15.7,10.7-14.8,22.4
	C50.7,80,58.8,88.8,67.9,88.1z"/>
<path class="st1" d="M66.8,91C56.7,91,48,81.1,46.9,68.5c-0.5-6.3,0.9-12.4,4.1-17.1c3.2-5,8-7.9,13.2-8.3
	c10.6-0.8,20.1,9.4,21.1,22.5c1,13.2-6.8,24.7-17.4,25.6C67.7,91,67.2,91,66.8,91z M65.6,48.7c-0.2,0-0.5,0-0.8,0
	c-3.4,0.3-6.7,2.3-9,5.8c-2.4,3.8-3.5,8.6-3.1,13.6c0.8,10,7.4,17.8,15,17.2c7.4-0.5,12.8-9.2,12.1-19.3
	C78.9,56.3,72.8,48.7,65.6,48.7z"/>
<path class="st2" d="M67,45.9c0,0-7.6,13.7-0.8,21.1c5.5,6-1.1,20.4-1.1,20.4"/>
<path class="st1" d="M65.1,90.3c-0.4,0-0.8-0.1-1.1-0.2c-1.5-0.6-2.1-2.4-1.4-3.8c1.5-3.3,5-13.6,1.7-17.3
	c-8.1-8.9,0.1-23.8,0.5-24.4c0.7-1.4,2.5-1.9,3.9-1.1c1.4,0.7,1.9,2.5,1.1,3.9c-1.9,3.3-5.6,12.9-1.3,17.7
	c6.6,7.2,0.1,21.9-0.6,23.6C67.1,89.6,66.1,90.3,65.1,90.3z"/>
<path class="st3" d="M82.6,65.8c-0.6-8.4-5-15.3-10.8-18.4c1.8,3,2.9,6.8,3.2,10.7c0.9,11.7-5.7,21.7-14.8,22.4
	c-2.5,0.2-5-0.4-7.2-1.6c3.3,5.9,8.9,9.6,14.8,9.2C76.8,87.5,83.5,77.4,82.6,65.8z"/>
<path class="st5" d="M32.6,56.4c5.4,7,5.5,16.1,0.1,20.3c-5.4,4.3-14.3,2-19.7-5c-5.5-7-5.5-16.1-0.1-20.3
	C18.3,47.2,27.1,49.4,32.6,56.4z"/>
<path class="st1" d="M26.2,81.7c-5.6,0-11.5-3.1-15.4-8.2c-6.5-8.2-6.3-19.2,0.4-24.3c2.3-1.8,5.1-2.7,8.2-2.7
	c5.6,0,11.5,3.1,15.4,8.2c3,3.9,4.7,8.4,4.7,12.9c0,4.7-1.8,8.8-5.1,11.4C32.1,80.8,29.3,81.7,26.2,81.7z M19.4,52.1
	c-1.8,0-3.4,0.5-4.7,1.6c-4.2,3.2-3.9,10.5,0.6,16.3c2.9,3.8,7.1,6,11,6c1.8,0,3.4-0.5,4.7-1.6c1.9-1.5,2.9-4,2.9-6.9
	c0-3.2-1.3-6.6-3.5-9.5C27.4,54.4,23.2,52.1,19.4,52.1z"/>
<path class="st2" d="M14.5,50.3c0,0,0.9,11.9,8.2,13.7c6,1.6,7.9,13.5,7.9,13.5"/>
<path class="st1" d="M30.6,80.3c-1.4,0-2.6-1-2.8-2.4c-0.6-4.1-2.9-10.3-5.7-11.1c-9.3-2.3-10.4-15.6-10.4-16.3
	c-0.1-1.6,1-2.9,2.6-3c1.6-0.1,2.9,1,3,2.6c0,0.1,0.9,9.8,6.2,11.2c7.6,1.9,9.8,14.3,10,15.7c0.2,1.6-0.8,3-2.4,3.2
	C31,80.3,30.7,80.3,30.6,80.3z"/>
<path class="st3" d="M32.6,56.4c-1.8-2.2-3.8-4-5.9-5.1c3.8,6.6,3.2,14.1-1.6,17.8c-3.8,2.9-9,2.8-13.8,0.1c0.5,0.8,1,1.7,1.7,2.5
	c5.4,7,14.3,9.2,19.7,5C38,72.4,38,63.4,32.6,56.4z"/>
<path class="st0" d="M42.4,34.9c7-5.4,9.3-14.2,5.1-19.6c-4.2-5.4-13.3-5.4-20.3,0c-7,5.4-9.3,14.2-5.1,19.6
	C26.3,40.3,35.4,40.3,42.4,34.9z"/>
<path class="st1" d="M31.3,41.9c-4.7,0-8.8-1.9-11.4-5.2c-2.6-3.3-3.3-7.7-2.2-12.3C18.9,20,21.6,16,25.4,13c3.9-3,8.4-4.7,12.9-4.7
	c4.7,0,8.8,1.9,11.4,5.2c5.2,6.7,2.7,17.3-5.5,23.7C40.3,40.2,35.6,41.9,31.3,41.9z M38.4,14c-3.2,0-6.6,1.3-9.5,3.4
	c-2.9,2.3-4.9,5.2-5.7,8.3c-0.7,2.8-0.3,5.4,1.1,7.4c1.5,1.9,4,2.9,6.9,2.9c3.2,0,6.6-1.3,9.5-3.4c5.7-4.5,7.8-11.5,4.6-15.6
	C43.8,15.1,41.3,14,38.4,14z"/>
<path class="st2" d="M48.5,16.9c0,0-11.9,0.8-13.8,8.2c-1.6,5.9-13.5,7.8-13.5,7.8"/>
<path class="st1" d="M21.4,35.7c-1.4,0-2.6-1-2.8-2.4c-0.2-1.6,0.8-3,2.4-3.2c4.1-0.6,10.3-2.8,11.1-5.6
	c2.4-9.3,15.7-10.3,16.3-10.3c1.6-0.1,2.9,1,3,2.6c0.1,1.6-1,2.9-2.6,3c-0.1,0-9.8,0.9-11.2,6c-2,7.6-14.3,9.7-15.7,9.9
	C21.7,35.7,21.6,35.7,21.4,35.7z"/>
<path class="st3" d="M47.5,15.3c-1.5-1.9-3.4-3-5.8-3.6c1.1,5.1-1.5,11.5-6.9,15.7c-4.6,3.5-10.1,4.8-14.5,3.6
	c0.3,1.5,0.9,2.8,1.9,4c4.2,5.4,13.3,5.4,20.3,0C49.4,29.5,51.7,20.7,47.5,15.3z"/>
<path class="st6" d="M116.5,38.6c-2.2,9-9.6,14.8-16.5,13c-6.9-1.7-10.7-10.3-8.6-19.3c2.2-9,9.6-14.8,16.5-13
	C114.8,21,118.7,29.7,116.5,38.6z"/>
<path class="st1" d="M102.4,54.8c-1,0-2.1-0.1-3.1-0.4c-4.3-1-7.6-4.1-9.6-8.6c-1.9-4.2-2.2-9.3-1-14.2c2.2-9,9.3-15.5,16.9-15.5
	c1,0,2.1,0.1,3.1,0.4c8.4,2.1,13.2,12.3,10.6,22.7C117,48.3,109.9,54.8,102.4,54.8z M105.4,22c-4.9,0-9.7,4.8-11.3,11.2
	c-0.9,3.8-0.6,7.4,0.7,10.5c1.3,2.8,3.3,4.7,5.7,5.3c0.5,0.1,1.1,0.2,1.8,0.2c4.9,0,9.7-4.8,11.3-11.2c1.8-7.4-1-14.5-6.5-15.9
	C106.7,22,106,22,105.4,22z"/>
<path class="st2" d="M109.8,20c0,0-9.1,8.3-5.8,15.5c2.6,5.8-5.8,14.9-5.8,14.9"/>
<path class="st1" d="M98,53.4c-0.7,0-1.4-0.2-2-0.7c-1.1-1-1.3-2.9-0.1-4.1c2.4-2.5,6.8-8.8,5.3-11.9c-4.1-9,6.2-18.4,6.6-18.8
	c1.1-1,3-0.9,4.1,0.2c1,1.1,0.9,2.9-0.2,4.1c-0.1,0.1-7.5,7.1-5.2,12.2c3.3,7.4-5.4,17-6.4,18C99.6,53,98.7,53.4,98,53.4z"/>
<path class="st3" d="M108.3,19.5c1.3,3.3,1.6,7.4,0.5,11.5c-2.3,9-9.6,14.9-16.6,13.1c-0.1,0-0.2-0.1-0.4-0.1c1.5,3.9,4.3,6.8,8,7.7
	c6.9,1.7,14.3-4.2,16.5-13C118.6,29.9,114.9,21.4,108.3,19.5z"/>
</svg>
